<svg width="33" height="33" viewBox="0 0 33 33" fill="none" xmlns="http://www.w3.org/2000/svg">
<ellipse cx="16.1163" cy="16.5" rx="16.1163" ry="16.5" fill="#E30547"/>
<path fill-rule="evenodd" clip-rule="evenodd" d="M18.2422 6.91163C20.0507 7.00724 21.4891 8.56493 21.4891 10.4725V13.099C22.8288 13.5826 23.791 14.9078 23.7911 16.4678V22.5275C23.791 24.4966 22.2585 26.093 20.3682 26.093H11.0977C9.20738 26.093 7.67493 24.4966 7.6748 22.5275V16.4678C7.67491 14.9075 8.63731 13.5818 9.97737 13.0984V10.4725C9.97737 8.50331 11.5099 6.90698 13.4003 6.90698H18.0661L18.2422 6.91163ZM13.4003 7.50123C11.8249 7.50123 10.5479 8.83151 10.5479 10.4725V12.9487C10.7269 12.9186 10.9105 12.9023 11.0977 12.9023H20.3682C20.5555 12.9023 20.7394 12.9185 20.9186 12.9487V10.4725C20.9186 8.83162 19.6414 7.50141 18.0661 7.50123H13.4003Z" fill="white"/>
</svg>
