<svg width="21" height="23" viewBox="0 0 21 23" fill="none" xmlns="http://www.w3.org/2000/svg">
<rect y="3.86664" width="20.7833" height="18.6333" rx="4" fill="#E30547"/>
<rect x="4.30005" y="16.05" width="2.15" height="2.15" rx="1" fill="white"/>
<rect x="4.30005" y="7.45001" width="2.15" height="2.15" rx="1" fill="white"/>
<rect x="4.30005" y="10.3167" width="2.15" height="2.15" rx="1" fill="white"/>
<rect x="4.30005" y="13.1833" width="2.15" height="2.15" rx="1" fill="white"/>
<rect x="7.8833" y="16.05" width="2.15" height="2.15" rx="1" fill="white"/>
<rect x="7.8833" y="7.45001" width="2.15" height="2.15" rx="1" fill="white"/>
<rect x="7.8833" y="10.3167" width="2.15" height="2.15" rx="1" fill="white"/>
<rect x="7.8833" y="13.1833" width="2.15" height="2.15" rx="1" fill="white"/>
<rect x="11.4667" y="16.05" width="2.15" height="2.15" rx="1" fill="white"/>
<rect x="11.4667" y="7.45001" width="2.15" height="2.15" rx="1" fill="white"/>
<rect x="11.4667" y="10.3167" width="2.15" height="2.15" rx="1" fill="white"/>
<rect x="11.4667" y="13.1833" width="2.15" height="2.15" rx="1" fill="white"/>
<rect x="15.05" y="7.45001" width="2.15" height="2.15" rx="1" fill="white"/>
<rect x="15.05" y="10.3167" width="2.15" height="2.15" rx="1" fill="white"/>
<rect x="15.05" y="13.1833" width="2.15" height="2.15" rx="1" fill="white"/>
<rect width="21" height="3" rx="1.5" fill="#E30547"/>
</svg>
