<svg width="88" height="83" viewBox="0 0 88 83" fill="none" xmlns="http://www.w3.org/2000/svg">
<g filter="url(#filter0_d_2070_124)">
<path d="M43.9844 4C63.5182 4 79.9685 18.5754 79.9688 37.2812C79.9688 55.9873 63.5184 70.5635 43.9844 70.5635C24.4505 70.5634 8 55.9872 8 37.2812C8.00025 18.5755 24.4506 4.00011 43.9844 4Z" fill="#E30547" stroke="white" stroke-width="8"/>
<path d="M53.1475 23.3164C54.8043 23.3164 56.1474 24.6596 56.1475 26.3164V49.1475C56.1475 50.8043 54.8043 52.1475 53.1475 52.1475H34.8213C33.1645 52.1474 31.8213 50.8043 31.8213 49.1475V26.3164C31.8214 24.6597 33.1646 23.3165 34.8213 23.3164H53.1475ZM39.0293 43.1377C38.5317 43.1377 38.1279 43.5415 38.1279 44.0391C38.128 44.5366 38.5317 44.9404 39.0293 44.9404H48.9404C49.4378 44.9402 49.8408 44.5365 49.8408 44.0391C49.8408 43.5416 49.4378 43.1379 48.9404 43.1377H39.0293ZM39.0293 38.6328C38.5317 38.6328 38.1279 39.0366 38.1279 39.5342C38.128 40.0318 38.5317 40.4355 39.0293 40.4355H48.9404C49.4378 40.4353 49.8408 40.0316 49.8408 39.5342C49.8408 39.0367 49.4378 38.6331 48.9404 38.6328H39.0293ZM39.0293 34.1279C38.5317 34.1279 38.1279 34.5317 38.1279 35.0293C38.128 35.5269 38.5317 35.9307 39.0293 35.9307H48.9404C49.4378 35.9304 49.8408 35.5267 49.8408 35.0293C49.8408 34.5319 49.4378 34.1282 48.9404 34.1279H39.0293ZM51.3076 24.3047C50.7556 24.3049 50.3078 24.7527 50.3076 25.3047V26.8672H48.3184C47.7663 26.8674 47.3184 27.3151 47.3184 27.8672C47.3184 28.4193 47.7663 28.8669 48.3184 28.8672H50.3076V30.5244C50.3078 31.0764 50.7556 31.5242 51.3076 31.5244C51.8598 31.5244 52.3075 31.0766 52.3076 30.5244V28.8672H54.1904C54.7427 28.8672 55.1904 28.4195 55.1904 27.8672C55.1904 27.3149 54.7427 26.8672 54.1904 26.8672H52.3076V25.3047C52.3075 24.7525 51.8598 24.3047 51.3076 24.3047Z" fill="white"/>
</g>
<defs>
<filter id="filter0_d_2070_124" x="0" y="0" width="87.9692" height="82.5634" filterUnits="userSpaceOnUse" color-interpolation-filters="sRGB">
<feFlood flood-opacity="0" result="BackgroundImageFix"/>
<feColorMatrix in="SourceAlpha" type="matrix" values="0 0 0 0 0 0 0 0 0 0 0 0 0 0 0 0 0 0 127 0" result="hardAlpha"/>
<feOffset dy="4"/>
<feGaussianBlur stdDeviation="2"/>
<feComposite in2="hardAlpha" operator="out"/>
<feColorMatrix type="matrix" values="0 0 0 0 0 0 0 0 0 0 0 0 0 0 0 0 0 0 0.25 0"/>
<feBlend mode="normal" in2="BackgroundImageFix" result="effect1_dropShadow_2070_124"/>
<feBlend mode="normal" in="SourceGraphic" in2="effect1_dropShadow_2070_124" result="shape"/>
</filter>
</defs>
</svg>
