<svg width="91" height="83" viewBox="0 0 91 83" fill="none" xmlns="http://www.w3.org/2000/svg">
<path d="M91 41.5C91 64.4198 70.629 83 45.5 83C20.371 83 0 64.4198 0 41.5C0 18.5802 20.371 0 45.5 0C70.629 0 91 18.5802 91 41.5Z" fill="#E30547"/>
<path d="M81 41.5C81 59.4493 65.1061 74 45.5 74C25.8939 74 10 59.4493 10 41.5C10 23.5507 25.8939 9 45.5 9C65.1061 9 81 23.5507 81 41.5Z" fill="white"/>
<path fill-rule="evenodd" clip-rule="evenodd" d="M56 26C57.6569 26 59 27.3431 59 29V55C59 56.6569 57.6569 58 56 58H35C33.3431 58 32 56.6569 32 55V29C32 27.3431 33.3431 26 35 26H56ZM40 48C39.4477 48 39 48.4477 39 49C39 49.5523 39.4477 50 40 50H51C51.5523 50 52 49.5523 52 49C52 48.4477 51.5523 48 51 48H40ZM40 43C39.4477 43 39 43.4477 39 44C39 44.5523 39.4477 45 40 45H51C51.5523 45 52 44.5523 52 44C52 43.4477 51.5523 43 51 43H40ZM40 38C39.4477 38 39 38.4477 39 39C39 39.5523 39.4477 40 40 40H51C51.5523 40 52 39.5523 52 39C52 38.4477 51.5523 38 51 38H40ZM53.6279 27.207C53.0758 27.2072 52.6279 27.6549 52.6279 28.207V30.0508H50.3105C49.7584 30.051 49.3105 30.4986 49.3105 31.0508C49.3105 31.6029 49.7584 32.0506 50.3105 32.0508H52.6279V34C52.628 34.5521 53.0759 34.9998 53.6279 35C54.1802 35 54.6279 34.5522 54.6279 34V32.0508H56.8281C57.3802 32.0506 57.8281 31.6029 57.8281 31.0508C57.8281 30.4986 57.3802 30.051 56.8281 30.0508H54.6279V28.207C54.6279 27.6547 54.1802 27.207 53.6279 27.207Z" fill="#E30547"/>
</svg>
