<svg width="41" height="41" viewBox="0 0 41 41" fill="none" xmlns="http://www.w3.org/2000/svg">
<path d="M41 20.5C41 31.8218 31.8218 41 20.5 41C9.17816 41 0 31.8218 0 20.5C0 9.17816 9.17816 0 20.5 0C31.8218 0 41 9.17816 41 20.5Z" fill="white"/>
<path fill-rule="evenodd" clip-rule="evenodd" d="M18.2256 10.4313C19.5591 9.2785 21.5366 9.27853 22.8701 10.4313L28.1982 15.0377C28.426 15.2347 28.619 15.4487 28.7812 15.6735C30.0276 16.5262 30.8457 17.9594 30.8457 19.5836V26.1783C30.8456 28.7931 28.726 30.9126 26.1113 30.9127H14.9844C12.3698 30.9125 10.2501 28.793 10.25 26.1783V19.5836C10.25 17.9598 11.0676 16.5263 12.3135 15.6735C12.4759 15.4484 12.6704 15.2349 12.8984 15.0377L18.2256 10.4313ZM22.8418 17.985C22.0072 17.985 21.1144 18.3599 20.5479 19.1139C19.9814 18.3602 19.0893 17.9851 18.2549 17.985C17.6763 17.985 17.091 18.1627 16.6426 18.5504C16.1841 18.947 15.9053 19.5325 15.9053 20.2604C15.9054 21.6249 16.6422 22.8257 17.5039 23.8395C18.3574 24.8435 19.4461 25.7836 20.1943 26.5319L20.5479 26.8854L20.9014 26.5319C21.6496 25.7836 22.7382 24.8436 23.5918 23.8395C24.4535 22.8257 25.1903 21.6249 25.1904 20.2604C25.1904 19.5325 24.9125 18.947 24.4541 18.5504C24.0057 18.1626 23.4204 17.9851 22.8418 17.985Z" fill="#E30547"/>
</svg>
