<svg width="43" height="43" viewBox="0 0 43 43" fill="none" xmlns="http://www.w3.org/2000/svg">
<path d="M43 21.5C43 33.3741 33.3741 43 21.5 43C9.62588 43 0 33.3741 0 21.5C0 9.62588 9.62588 0 21.5 0C33.3741 0 43 9.62588 43 21.5Z" fill="white"/>
<path fill-rule="evenodd" clip-rule="evenodd" d="M27.7832 13.8672C29.9922 13.8672 31.7829 15.6573 31.7832 17.8662V28.5C31.7832 30.7091 29.9923 32.5 27.7832 32.5H15C12.7909 32.5 11 30.7091 11 28.5V17.8662C11.0003 15.6573 12.791 13.8672 15 13.8672H27.7832ZM16.2998 26.0498C15.7477 26.0499 15.2999 26.4977 15.2998 27.0498V27.2002C15.2999 27.7523 15.7477 28.2001 16.2998 28.2002H16.4502C17.0023 28.2001 17.4501 27.7523 17.4502 27.2002V27.0498C17.4501 26.4976 17.0024 26.0499 16.4502 26.0498H16.2998ZM19.8838 26.0498C19.3316 26.0498 18.8839 26.4976 18.8838 27.0498V27.2002C18.8839 27.7524 19.3316 28.2002 19.8838 28.2002H20.0332C20.5854 28.2002 21.0331 27.7524 21.0332 27.2002V27.0498C21.0331 26.4976 20.5854 26.0498 20.0332 26.0498H19.8838ZM23.4668 26.0498C22.9146 26.0498 22.4669 26.4976 22.4668 27.0498V27.2002C22.4669 27.7524 22.9146 28.2002 23.4668 28.2002H23.6172C24.1692 28.1999 24.6171 27.7522 24.6172 27.2002V27.0498C24.6171 26.4977 24.1692 26.0501 23.6172 26.0498H23.4668ZM16.2998 23.1836C15.7476 23.1837 15.2998 23.6314 15.2998 24.1836V24.333C15.2998 24.8852 15.7476 25.3329 16.2998 25.333H16.4502C17.0024 25.3329 17.4502 24.8852 17.4502 24.333V24.1836C17.4502 23.6314 17.0024 23.1837 16.4502 23.1836H16.2998ZM19.8838 23.1836C19.3315 23.1836 18.8838 23.6313 18.8838 24.1836V24.333C18.8838 24.8853 19.3315 25.333 19.8838 25.333H20.0332C20.5855 25.333 21.0332 24.8853 21.0332 24.333V24.1836C21.0332 23.6313 20.5855 23.1836 20.0332 23.1836H19.8838ZM23.4668 23.1836C22.9145 23.1836 22.4668 23.6313 22.4668 24.1836V24.333C22.4668 24.8853 22.9145 25.333 23.4668 25.333H23.6172C24.1693 25.3328 24.6172 24.8851 24.6172 24.333V24.1836C24.6172 23.6315 24.1693 23.1838 23.6172 23.1836H23.4668ZM27.0498 23.1836C26.4976 23.1837 26.0498 23.6314 26.0498 24.1836V24.333C26.0498 24.8852 26.4976 25.3329 27.0498 25.333H27.2002C27.7524 25.3329 28.2002 24.8852 28.2002 24.333V24.1836C28.2002 23.6314 27.7524 23.1837 27.2002 23.1836H27.0498ZM16.2998 20.3164C15.7477 20.3165 15.2999 20.7643 15.2998 21.3164V21.4668C15.2999 22.0189 15.7477 22.4667 16.2998 22.4668H16.4502C17.0024 22.4667 17.4501 22.019 17.4502 21.4668V21.3164C17.4501 20.7643 17.0023 20.3165 16.4502 20.3164H16.2998ZM19.8838 20.3164C19.3316 20.3164 18.8839 20.7642 18.8838 21.3164V21.4668C18.8839 22.019 19.3316 22.4668 19.8838 22.4668H20.0332C20.5854 22.4668 21.0331 22.019 21.0332 21.4668V21.3164C21.0331 20.7642 20.5854 20.3164 20.0332 20.3164H19.8838ZM23.4668 20.3164C22.9146 20.3164 22.4669 20.7642 22.4668 21.3164V21.4668C22.4669 22.019 22.9146 22.4668 23.4668 22.4668H23.6172C24.1692 22.4665 24.6171 22.0188 24.6172 21.4668V21.3164C24.6171 20.7644 24.1692 20.3167 23.6172 20.3164H23.4668ZM27.0498 20.3164C26.4977 20.3165 26.0499 20.7643 26.0498 21.3164V21.4668C26.0499 22.0189 26.4977 22.4667 27.0498 22.4668H27.2002C27.7524 22.4667 28.2001 22.019 28.2002 21.4668V21.3164C28.2001 20.7643 27.7523 20.3165 27.2002 20.3164H27.0498ZM16.2998 17.4502C15.7476 17.4503 15.2998 17.898 15.2998 18.4502V18.5996C15.2998 19.1518 15.7476 19.5995 16.2998 19.5996H16.4502C17.0024 19.5995 17.4502 19.1518 17.4502 18.5996V18.4502C17.4502 17.898 17.0024 17.4503 16.4502 17.4502H16.2998ZM19.8838 17.4502C19.3315 17.4502 18.8838 17.8979 18.8838 18.4502V18.5996C18.8838 19.1519 19.3315 19.5996 19.8838 19.5996H20.0332C20.5855 19.5996 21.0332 19.1519 21.0332 18.5996V18.4502C21.0332 17.8979 20.5855 17.4502 20.0332 17.4502H19.8838ZM23.4668 17.4502C22.9145 17.4502 22.4668 17.8979 22.4668 18.4502V18.5996C22.4668 19.1519 22.9145 19.5996 23.4668 19.5996H23.6172C24.1693 19.5994 24.6172 19.1517 24.6172 18.5996V18.4502C24.6172 17.8981 24.1693 17.4505 23.6172 17.4502H23.4668ZM27.0498 17.4502C26.4976 17.4503 26.0498 17.898 26.0498 18.4502V18.5996C26.0498 19.1518 26.4976 19.5995 27.0498 19.5996H27.2002C27.7524 19.5995 28.2002 19.1518 28.2002 18.5996V18.4502C28.2002 17.898 27.7524 17.4503 27.2002 17.4502H27.0498Z" fill="#E30547"/>
<path d="M30.708 11C31.3017 11 31.7832 11.4815 31.7832 12.0752C31.7831 12.6688 31.3016 13.1504 30.708 13.1504H12.0752C11.4816 13.1504 11.0001 12.6688 11 12.0752C11 11.4815 11.4815 11 12.0752 11H30.708Z" fill="#E30547"/>
</svg>
