<svg width="27" height="29" viewBox="0 0 27 29" fill="none" xmlns="http://www.w3.org/2000/svg">
<rect y="4.89777" width="26.3256" height="23.6022" rx="4" fill="white"/>
<rect x="5.44666" y="20.33" width="2.72333" height="2.72333" rx="1" fill="#E30547"/>
<rect x="5.44666" y="9.43671" width="2.72333" height="2.72333" rx="1" fill="#E30547"/>
<rect x="5.44666" y="13.0677" width="2.72333" height="2.72333" rx="1" fill="#E30547"/>
<rect x="5.44666" y="16.6989" width="2.72333" height="2.72333" rx="1" fill="#E30547"/>
<rect x="9.9856" y="20.33" width="2.72333" height="2.72333" rx="1" fill="#E30547"/>
<rect x="9.9856" y="9.43671" width="2.72333" height="2.72333" rx="1" fill="#E30547"/>
<rect x="9.9856" y="13.0677" width="2.72333" height="2.72333" rx="1" fill="#E30547"/>
<rect x="9.9856" y="16.6989" width="2.72333" height="2.72333" rx="1" fill="#E30547"/>
<rect x="14.5244" y="20.33" width="2.72333" height="2.72333" rx="1" fill="#E30547"/>
<rect x="14.5244" y="9.43671" width="2.72333" height="2.72333" rx="1" fill="#E30547"/>
<rect x="14.5244" y="13.0677" width="2.72333" height="2.72333" rx="1" fill="#E30547"/>
<rect x="14.5244" y="16.6989" width="2.72333" height="2.72333" rx="1" fill="#E30547"/>
<rect x="19.0634" y="9.43671" width="2.72333" height="2.72333" rx="1" fill="#E30547"/>
<rect x="19.0634" y="13.0677" width="2.72333" height="2.72333" rx="1" fill="#E30547"/>
<rect x="19.0634" y="16.6989" width="2.72333" height="2.72333" rx="1" fill="#E30547"/>
<rect width="26.6" height="3.8" rx="1.5" fill="white"/>
</svg>
