<svg width="33" height="14" viewBox="0 0 33 14" fill="none" xmlns="http://www.w3.org/2000/svg">
<path d="M6.4412 0C6.92417 0.000115431 7.31588 0.391822 7.31588 0.875V11.0127L11.3895 6.93762C11.7311 6.59628 12.2849 6.59604 12.6263 6.93762C12.9677 7.27922 12.9675 7.83322 12.6263 8.17493L7.05962 13.7437C6.71808 14.0853 6.16436 14.0853 5.82277 13.7437L0.256059 8.17493C-0.0852666 7.8332 -0.0854395 7.27924 0.256059 6.93762C0.597566 6.59611 1.15135 6.59621 1.49292 6.93762L5.56651 11.0127V0.875C5.56651 0.391751 5.95812 -2.11235e-08 6.4412 0Z" fill="#A6A6A6"/>
<path d="M25.9405 0.256348C26.2821 -0.0852544 26.8358 -0.0853258 27.1773 0.256348L32.744 5.82507C33.0852 6.16678 33.0854 6.72078 32.744 7.06238C32.4026 7.40396 31.8488 7.40372 31.5072 7.06238L27.4336 2.9873V13.125C27.4336 13.6082 27.0419 13.9999 26.5589 14C26.0758 14 25.6842 13.6082 25.6842 13.125V2.9873L21.6106 7.06238C21.2691 7.40379 20.7153 7.40389 20.3738 7.06238C20.0323 6.72076 20.0324 6.1668 20.3738 5.82507L25.9405 0.256348Z" fill="#A6A6A6"/>
</svg>
