<svg width="14" height="14" viewBox="0 0 14 14" fill="none" xmlns="http://www.w3.org/2000/svg">
<path d="M5.25195 0.741211C6.00889 0.0868722 7.13173 0.0868723 7.88867 0.741211L11.2871 3.67969C11.4176 3.79256 11.5288 3.91413 11.6211 4.04199L11.6465 4.07812L11.6826 4.10254C12.4124 4.60199 12.8905 5.44065 12.8906 6.39062V10.5986C12.8905 12.1286 11.6501 13.3689 10.1201 13.3691H3.02051C1.49049 13.3689 0.250112 12.1286 0.25 10.5986V6.39062C0.250144 5.44064 0.728409 4.60196 1.45801 4.10254L1.49316 4.07812L1.51953 4.04199C1.61152 3.91458 1.72258 3.7929 1.85352 3.67969L5.25195 0.741211Z" fill="#E30547" stroke="#E30547" stroke-width="0.5"/>
<path d="M8.03357 5.43976C8.38917 5.43978 8.74555 5.54888 9.01697 5.78351C9.29348 6.02265 9.46326 6.37688 9.46326 6.82257C9.46324 7.66809 9.00675 8.4179 8.46033 9.06085C7.91778 9.69915 7.23053 10.2926 6.74744 10.7757L6.57068 10.9525L6.39392 10.7757C5.91083 10.2926 5.22358 9.69915 4.68103 9.06085C4.13445 8.41781 3.67713 7.66827 3.67712 6.82257C3.67712 6.37688 3.8469 6.02265 4.12341 5.78351C4.3948 5.54887 4.75123 5.43982 5.10681 5.43976C5.64778 5.43976 6.22707 5.69542 6.5697 6.20929C6.91228 5.69507 7.49242 5.43976 8.03357 5.43976Z" fill="white" stroke="#E30547" stroke-width="0.5" stroke-linecap="round"/>
</svg>
