<svg width="14" height="14" viewBox="0 0 14 14" fill="none" xmlns="http://www.w3.org/2000/svg">
<path d="M5.08887 0.551636C5.93969 -0.183864 7.20093 -0.183864 8.05176 0.551636L11.4512 3.49011C11.5966 3.61583 11.7197 3.75289 11.8232 3.89636C12.6183 4.44042 13.1405 5.35439 13.1406 6.3905V10.5985C13.1404 12.2665 11.7881 13.6188 10.1201 13.619H3.02051C1.35248 13.6188 0.000178353 12.2665 0 10.5985V6.3905C0.000103396 5.35466 0.521682 4.44047 1.31641 3.89636C1.42003 3.75275 1.54394 3.61594 1.68945 3.49011L5.08887 0.551636ZM8.0332 5.18933C7.51702 5.1894 6.96536 5.39529 6.56934 5.81042C6.1733 5.39573 5.62239 5.18933 5.10645 5.18933C4.70196 5.18944 4.28446 5.31401 3.95996 5.5946C3.62531 5.88407 3.42679 6.30844 3.42676 6.82214C3.42677 7.75829 3.93204 8.56579 4.49023 9.22253C5.04032 9.86967 5.7541 10.4894 6.2168 10.952L6.57031 11.3055L6.92383 10.952C7.38654 10.4893 8.10022 9.86979 8.65039 9.22253C9.20855 8.56581 9.71288 7.75825 9.71289 6.82214C9.71286 6.30859 9.51514 5.88407 9.18066 5.5946C8.85607 5.31398 8.43777 5.18935 8.0332 5.18933Z" fill="#E30547"/>
</svg>
