<svg width="33" height="33" viewBox="0 0 33 33" fill="none" xmlns="http://www.w3.org/2000/svg">
<circle cx="16.5" cy="16.5" r="16.5" fill="white"/>
<path d="M11.3194 10.7441C12.1368 10.7441 12.7995 11.4313 12.7995 12.279V16.1162H20.1998V12.279C20.1998 11.4313 20.8624 10.7441 21.6799 10.7441H23.9C24.7174 10.7441 25.38 11.4313 25.38 12.279V13.8139H26.1201C26.5288 13.8139 26.8601 14.1575 26.8601 14.5813V19.186C26.8601 19.6098 26.5288 19.9534 26.1201 19.9534H25.38V21.4883C25.38 22.336 24.7174 23.0232 23.9 23.0232H21.6799C20.8624 23.0232 20.1998 22.336 20.1998 21.4883V17.6511H12.7995V21.4883C12.7995 22.336 12.1368 23.0232 11.3194 23.0232H9.09929C8.28188 23.0232 7.61923 22.336 7.61923 21.4883V19.9534H6.87919C6.47048 19.9534 6.13916 19.6098 6.13916 19.186V14.5813C6.13916 14.1575 6.47048 13.8139 6.87919 13.8139H7.61923V12.279C7.61923 11.4313 8.28188 10.7441 9.09929 10.7441H11.3194Z" fill="#E30547"/>
</svg>
